<?xml version="1.0" encoding="utf-8"?>
<!-- Generator: Adobe Illustrator 16.0.0, SVG Export Plug-In . SVG Version: 6.00 Build 0)  -->
<!DOCTYPE svg PUBLIC "-//W3C//DTD SVG 1.0//EN" "http://www.w3.org/TR/2001/REC-SVG-20010904/DTD/svg10.dtd">
<svg version="1.0" xmlns="http://www.w3.org/2000/svg" xmlns:xlink="http://www.w3.org/1999/xlink" x="0px" y="0px" width="83.69px"
	 height="83.69px" viewBox="0 0 83.69 83.69" enable-background="new 0 0 83.69 83.69" xml:space="preserve">
<g id="background">
</g>
<g id="objects">
	<g>
		<circle fill="#E9DCD2" cx="41.845" cy="41.845" r="41.845"/>
		<g>
			<circle fill="#E27124" cx="41.846" cy="41.845" r="34.455"/>
			<path id="group_1_" fill="#F1F2F2" d="M57.336,37.397h-1.994c-1.221,0-2.293-1.034-2.375-2.224
				c0-6.349-5.118-11.121-11.51-11.121h-5.833c-6.387,0-11.565,5.143-11.571,11.491V48.15c0,6.348,5.185,11.487,11.571,11.487H48.08
				c6.393,0,11.559-5.14,11.559-11.487v-8.145C59.639,38.737,58.615,37.397,57.336,37.397z M35.916,32.949h5.93
				c1.631,0,2.965,1.335,2.965,2.966s-1.334,2.965-2.965,2.965h-5.93c-1.633,0-2.967-1.334-2.967-2.965S34.283,32.949,35.916,32.949
				z M47.775,50.741H35.916c-1.633,0-2.967-1.335-2.967-2.965c0-1.631,1.334-2.967,2.967-2.967h11.859
				c1.633,0,2.967,1.336,2.967,2.967C50.742,49.406,49.408,50.741,47.775,50.741z"/>
		</g>
	</g>
</g>
<g id="designed_by_freepik">
</g>
</svg>
