<?xml version="1.0" encoding="utf-8"?>
<!-- Generator: Adobe Illustrator 16.0.0, SVG Export Plug-In . SVG Version: 6.00 Build 0)  -->
<!DOCTYPE svg PUBLIC "-//W3C//DTD SVG 1.0//EN" "http://www.w3.org/TR/2001/REC-SVG-20010904/DTD/svg10.dtd">
<svg version="1.0" xmlns="http://www.w3.org/2000/svg" xmlns:xlink="http://www.w3.org/1999/xlink" x="0px" y="0px"
	 width="83.689px" height="83.689px" viewBox="0 0 83.689 83.689" enable-background="new 0 0 83.689 83.689" xml:space="preserve">
<g id="background">
</g>
<g id="objects">
	<g>
		<circle fill="#F5D8D9" cx="41.845" cy="41.845" r="41.845"/>
		<g>
			<circle fill="#D33520" cx="41.844" cy="41.845" r="34.455"/>
			<g>
				<path fill="#F1F2F2" d="M33.885,39.854v4.776h7.9c-0.318,2.049-2.389,6.009-7.9,6.009c-4.756,0-8.636-3.939-8.636-8.795
					s3.88-8.796,8.636-8.796c2.706,0,4.518,1.154,5.552,2.149l3.781-3.642c-2.428-2.269-5.572-3.642-9.333-3.642
					c-7.7,0-13.929,6.229-13.929,13.93c0,7.7,6.229,13.929,13.929,13.929c8.039,0,13.373-5.65,13.373-13.61
					c0-0.916-0.101-1.612-0.22-2.309H33.885L33.885,39.854z"/>
				<path fill="#F1F2F2" d="M63.733,39.854h-3.98v-3.979h-3.979v3.979h-3.979v3.98h3.979v3.979h3.979v-3.979h3.98V39.854z"/>
			</g>
		</g>
	</g>
</g>
<g id="designed_by_freepik">
</g>
</svg>
